<svg xmlns="http://www.w3.org/2000/svg" xmlns:xlink="http://www.w3.org/1999/xlink" contentStyleType="text/css" data-diagram-type="SEQUENCE" height="555px" preserveAspectRatio="none" style="width:669px;height:555px;background:#FFFFFF;" version="1.1" viewBox="0 0 669 555" width="669px" zoomAndPan="magnify"><defs/><g><g><title>User</title><rect fill="#000000" fill-opacity="0.00000" height="466.8594" width="8" x="19.9551" y="81.2969"/><line style="stroke:#181818;stroke-width:0.5;stroke-dasharray:5.0,5.0;" x1="23" x2="23" y1="81.2969" y2="548.1563"/></g><g><title>Maven</title><rect fill="#000000" fill-opacity="0.00000" height="466.8594" width="8" x="113.6016" y="81.2969"/><line style="stroke:#181818;stroke-width:0.5;stroke-dasharray:5.0,5.0;" x1="117.3867" x2="117.3867" y1="81.2969" y2="548.1563"/></g><g><title>Turicum Maven Extension</title><rect fill="#000000" fill-opacity="0.00000" height="466.8594" width="8" x="296.8809" y="81.2969"/><line style="stroke:#181818;stroke-width:0.5;stroke-dasharray:5.0,5.0;" x1="300.2124" x2="300.2124" y1="81.2969" y2="548.1563"/></g><g><title>Turicum</title><rect fill="#000000" fill-opacity="0.00000" height="466.8594" width="8" x="440.1885" y="81.2969"/><line style="stroke:#181818;stroke-width:0.5;stroke-dasharray:5.0,5.0;" x1="443.5493" x2="443.5493" y1="81.2969" y2="548.1563"/></g><g><title>Maven Plaform Reader</title><rect fill="#000000" fill-opacity="0.00000" height="466.8594" width="8" x="572.48" y="81.2969"/><line style="stroke:#181818;stroke-width:0.5;stroke-dasharray:5.0,5.0;" x1="575.8276" x2="575.8276" y1="81.2969" y2="548.1563"/></g><g class="participant participant-head" data-participant="User"><text fill="#000000" font-family="sans-serif" font-size="14" lengthAdjust="spacing" textLength="31.9102" x="5" y="77.9951">User</text><ellipse cx="23.9551" cy="13.5" fill="#E2E2F0" rx="8" ry="8" style="stroke:#181818;stroke-width:0.5;"/><path d="M23.9551,21.5 L23.9551,48.5 M10.9551,29.5 L36.9551,29.5 M23.9551,48.5 L10.9551,63.5 M23.9551,48.5 L36.9551,63.5" fill="none" style="stroke:#181818;stroke-width:0.5;"/></g><g class="participant participant-head" data-participant="Maven"><rect fill="#E2E2F0" height="30.2969" rx="2.5" ry="2.5" style="stroke:#181818;stroke-width:0.5;" width="60.4297" x="87.3867" y="50"/><text fill="#000000" font-family="sans-serif" font-size="14" lengthAdjust="spacing" textLength="46.4297" x="94.3867" y="69.9951">Maven</text></g><g class="participant participant-head" data-participant="Turicum Maven Extension"><rect fill="#E2E2F0" height="30.2969" rx="2.5" ry="2.5" style="stroke:#181818;stroke-width:0.5;" width="195.3369" x="203.2124" y="50"/><text fill="#000000" font-family="sans-serif" font-size="14" lengthAdjust="spacing" textLength="181.3369" x="210.2124" y="69.9951">Turicum Maven Extension</text></g><g class="participant participant-head" data-participant="Turicum"><rect fill="#E2E2F0" height="30.2969" rx="2.5" ry="2.5" style="stroke:#181818;stroke-width:0.5;" width="71.2783" x="408.5493" y="50"/><text fill="#000000" font-family="sans-serif" font-size="14" lengthAdjust="spacing" textLength="57.2783" x="415.5493" y="69.9951">Turicum</text></g><g class="participant participant-head" data-participant="Maven Plaform Reader"><rect fill="#E2E2F0" height="30.2969" rx="2.5" ry="2.5" style="stroke:#181818;stroke-width:0.5;" width="173.3047" x="489.8276" y="50"/><text fill="#000000" font-family="sans-serif" font-size="14" lengthAdjust="spacing" textLength="159.3047" x="496.8276" y="69.9951">Maven Plaform Reader</text></g><g class="message" data-participant-1="User" data-participant-2="Maven"><polygon fill="#181818" points="105.6016,108.4297,115.6016,112.4297,105.6016,116.4297" style="stroke:#181818;stroke-width:1;"/><line style="stroke:#181818;stroke-width:1;" x1="23.9551" x2="111.6016" y1="112.4297" y2="112.4297"/><text fill="#000000" font-family="sans-serif" font-size="13" lengthAdjust="spacing" textLength="69.6465" x="30.9551" y="107.3638">mvn verify</text></g><g class="message" data-participant-1="Maven" data-participant-2="Maven"><line style="stroke:#181818;stroke-width:1;" x1="117.6016" x2="159.6016" y1="141.5625" y2="141.5625"/><line style="stroke:#181818;stroke-width:1;" x1="159.6016" x2="159.6016" y1="141.5625" y2="154.5625"/><line style="stroke:#181818;stroke-width:1;" x1="118.6016" x2="159.6016" y1="154.5625" y2="154.5625"/><polygon fill="#181818" points="128.6016,150.5625,118.6016,154.5625,128.6016,158.5625" style="stroke:#181818;stroke-width:1;"/><text fill="#000000" font-family="sans-serif" font-size="13" lengthAdjust="spacing" textLength="169.2793" x="124.6016" y="136.4966">read .mvn/extensions.xml</text></g><g class="message" data-participant-1="Maven" data-participant-2="Turicum Maven Extension"><polygon fill="#181818" points="288.8809,179.6953,298.8809,183.6953,288.8809,187.6953" style="stroke:#181818;stroke-width:1;"/><line style="stroke:#181818;stroke-width:1;" x1="117.6016" x2="294.8809" y1="183.6953" y2="183.6953"/><text fill="#000000" font-family="sans-serif" font-size="13" lengthAdjust="spacing" textLength="36.3784" x="124.6016" y="178.6294">LOAD</text></g><g class="message" data-participant-1="Maven" data-participant-2="Turicum Maven Extension"><polygon fill="#181818" points="288.8809,208.8281,298.8809,212.8281,288.8809,216.8281" style="stroke:#181818;stroke-width:1;"/><line style="stroke:#181818;stroke-width:1;" x1="117.6016" x2="294.8809" y1="212.8281" y2="212.8281"/><text fill="#000000" font-family="sans-serif" font-size="13" lengthAdjust="spacing" textLength="117.7617" x="124.6016" y="207.7622">get pom structure</text></g><g class="message" data-participant-1="Turicum Maven Extension" data-participant-2="Turicum"><polygon fill="#181818" points="432.1885,237.9609,442.1885,241.9609,432.1885,245.9609" style="stroke:#181818;stroke-width:1;"/><line style="stroke:#181818;stroke-width:1;" x1="300.8809" x2="438.1885" y1="241.9609" y2="241.9609"/><text fill="#000000" font-family="sans-serif" font-size="13" lengthAdjust="spacing" textLength="111.6172" x="307.8809" y="236.895">process pom.jam</text></g><g class="message" data-participant-1="Turicum" data-participant-2="Turicum Maven Extension"><polygon fill="#181818" points="311.8809,267.0938,301.8809,271.0938,311.8809,275.0938" style="stroke:#181818;stroke-width:1;"/><line style="stroke:#181818;stroke-width:1;stroke-dasharray:2.0,2.0;" x1="305.8809" x2="443.1885" y1="271.0938" y2="271.0938"/><text fill="#000000" font-family="sans-serif" font-size="13" lengthAdjust="spacing" textLength="37.064" x="317.8809" y="266.0278">result</text></g><g class="message" data-participant-1="Turicum Maven Extension" data-participant-2="Turicum Maven Extension"><line style="stroke:#181818;stroke-width:1;" x1="300.8809" x2="342.8809" y1="300.2266" y2="300.2266"/><line style="stroke:#181818;stroke-width:1;" x1="342.8809" x2="342.8809" y1="300.2266" y2="313.2266"/><line style="stroke:#181818;stroke-width:1;" x1="301.8809" x2="342.8809" y1="313.2266" y2="313.2266"/><polygon fill="#181818" points="311.8809,309.2266,301.8809,313.2266,311.8809,317.2266" style="stroke:#181818;stroke-width:1;"/><text fill="#000000" font-family="sans-serif" font-size="13" lengthAdjust="spacing" textLength="91.5332" x="307.8809" y="295.1606">save pom.xml</text></g><g class="message" data-participant-1="Turicum Maven Extension" data-participant-2="Maven"><polygon fill="#181818" points="128.6016,338.3594,118.6016,342.3594,128.6016,346.3594" style="stroke:#181818;stroke-width:1;"/><line style="stroke:#181818;stroke-width:1;" x1="122.6016" x2="299.8809" y1="342.3594" y2="342.3594"/><text fill="#000000" font-family="sans-serif" font-size="13" lengthAdjust="spacing" textLength="80.9009" x="134.6016" y="337.2935">pom.xml file</text></g><g class="message" data-participant-1="Maven" data-participant-2="Turicum Maven Extension"><polygon fill="#181818" points="288.8809,367.4922,298.8809,371.4922,288.8809,375.4922" style="stroke:#181818;stroke-width:1;"/><line style="stroke:#181818;stroke-width:1;" x1="117.6016" x2="294.8809" y1="371.4922" y2="371.4922"/><text fill="#000000" font-family="sans-serif" font-size="13" lengthAdjust="spacing" textLength="117.7617" x="124.6016" y="366.4263">get pom structure</text></g><g class="message" data-participant-1="Turicum Maven Extension" data-participant-2="Maven Plaform Reader"><polygon fill="#181818" points="564.48,396.625,574.48,400.625,564.48,404.625" style="stroke:#181818;stroke-width:1;"/><line style="stroke:#181818;stroke-width:1;" x1="300.8809" x2="570.48" y1="400.625" y2="400.625"/><text fill="#000000" font-family="sans-serif" font-size="13" lengthAdjust="spacing" textLength="116.1304" x="307.8809" y="395.5591">read the pom.xml</text></g><g class="message" data-participant-1="Maven Plaform Reader" data-participant-2="Turicum Maven Extension"><polygon fill="#181818" points="311.8809,425.7578,301.8809,429.7578,311.8809,433.7578" style="stroke:#181818;stroke-width:1;"/><line style="stroke:#181818;stroke-width:1;stroke-dasharray:2.0,2.0;" x1="305.8809" x2="575.48" y1="429.7578" y2="429.7578"/><text fill="#000000" font-family="sans-serif" font-size="13" lengthAdjust="spacing" textLength="92.2822" x="317.8809" y="424.6919">pom structure</text></g><g class="message" data-participant-1="Turicum Maven Extension" data-participant-2="Maven"><polygon fill="#181818" points="128.6016,454.8906,118.6016,458.8906,128.6016,462.8906" style="stroke:#181818;stroke-width:1;"/><line style="stroke:#181818;stroke-width:1;stroke-dasharray:2.0,2.0;" x1="122.6016" x2="299.8809" y1="458.8906" y2="458.8906"/><text fill="#000000" font-family="sans-serif" font-size="13" lengthAdjust="spacing" textLength="92.2822" x="134.6016" y="453.8247">pom structure</text></g><g class="message" data-participant-1="Maven" data-participant-2="Maven"><line style="stroke:#181818;stroke-width:1;" x1="117.6016" x2="159.6016" y1="488.0234" y2="488.0234"/><line style="stroke:#181818;stroke-width:1;" x1="159.6016" x2="159.6016" y1="488.0234" y2="501.0234"/><line style="stroke:#181818;stroke-width:1;" x1="118.6016" x2="159.6016" y1="501.0234" y2="501.0234"/><polygon fill="#181818" points="128.6016,497.0234,118.6016,501.0234,128.6016,505.0234" style="stroke:#181818;stroke-width:1;"/><text fill="#000000" font-family="sans-serif" font-size="13" lengthAdjust="spacing" textLength="31.9668" x="124.6016" y="482.9575">build</text></g><g class="message" data-participant-1="Maven" data-participant-2="User"><polygon fill="#181818" points="34.9551,526.1563,24.9551,530.1563,34.9551,534.1563" style="stroke:#181818;stroke-width:1;"/><line style="stroke:#181818;stroke-width:1;stroke-dasharray:2.0,2.0;" x1="28.9551" x2="116.6016" y1="530.1563" y2="530.1563"/><text fill="#000000" font-family="sans-serif" font-size="13" lengthAdjust="spacing" textLength="32.4429" x="40.9551" y="525.0903">done</text></g><!--SRC=[jLBBRi8m4BpdArQv9xqZLAbIkO50LVi1Rh8f1Z-YNJk2l- -cmIMemksb5nzcPyQp3zK4J_36I0KVjUiLAGiSpWRb9Ts4Q4qnbg5wX8qQqC42xE1WGDBTkPYWMOrGjL0Bum5F0HrhxxW-YSatitoDOXpjHR9Aj5BKw-tJyz-O7nYWzsDMYfAIiBZF5gjKMq1Fla7cKLmVbCt8bbKrqn5oD27_Ioum2_JrwNKOooghk92XqmR_PIZb1EwCwZnPU97L8PLfYM5_pPiVqbsVsoofwL-x_g6PtTTxrAQTBd9qId3h7Nu2]--></g></svg>